<?xml version="1.0" standalone="no"?>
<!DOCTYPE svg PUBLIC "-//W3C//DTD SVG 20010904//EN"
 "http://www.w3.org/TR/2001/REC-SVG-20010904/DTD/svg10.dtd">
<svg version="1.0" xmlns="http://www.w3.org/2000/svg"
 width="820.000000pt" height="875.000000pt" viewBox="0 0 820.000000 875.000000"
 preserveAspectRatio="xMidYMid meet">

<g transform="translate(0.000000,875.000000) scale(0.100000,-0.100000)"
fill="#ffffff" stroke="none">
<path d="M610 8718 c-11 -18 -30 -62 -42 -98 -20 -57 -23 -83 -21 -211 1 -87
8 -181 18 -234 9 -48 14 -89 12 -91 -5 -6 -41 111 -64 208 -17 72 -20 78 -43
78 -29 0 -31 -7 -75 -210 -35 -166 -41 -260 -21 -339 9 -35 14 -66 12 -68 -5
-5 -56 158 -56 180 0 16 -32 28 -48 18 -5 -3 -22 -42 -38 -86 -25 -71 -28 -94
-28 -210 l-1 -131 -26 4 c-23 3 -27 -1 -37 -40 -34 -128 -38 -224 -17 -363 2
-16 2 -21 -2 -10 -6 21 -21 35 -39 35 -6 0 -19 -28 -29 -62 -24 -84 -25 -244
-2 -317 20 -65 21 -69 5 -53 -19 19 -56 14 -63 -8 -10 -33 23 -236 52 -314 30
-81 42 -127 32 -121 -5 4 -17 24 -26 46 -12 30 -21 39 -39 39 -23 0 -24 -2
-24 -78 0 -81 21 -161 71 -267 43 -90 72 -132 177 -257 34 -41 0 -13 -69 56
-84 84 -86 87 -118 139 -32 53 -55 46 -59 -16 -4 -55 19 -135 53 -187 35 -55
39 -77 15 -83 -24 -6 -25 -25 -5 -74 8 -20 17 -49 20 -64 7 -38 67 -166 115
-245 l39 -65 -30 22 -31 22 -21 -21 c-20 -21 -20 -21 -2 -89 47 -173 178 -341
347 -445 70 -43 59 -44 -19 -2 -91 49 -177 118 -220 176 -26 36 -41 48 -57 46
-29 -4 -25 -43 14 -123 82 -168 210 -306 375 -402 36 -21 37 -23 11 -17 -36 9
-137 65 -167 93 -27 25 -52 27 -69 6 -11 -13 -7 -24 24 -69 120 -174 387 -351
621 -411 55 -15 102 -28 105 -31 8 -9 -101 7 -165 23 -33 8 -82 20 -110 25
-27 5 -84 23 -126 40 -121 49 -147 17 -56 -69 88 -83 160 -133 287 -200 l45
-24 -50 6 c-27 3 -60 8 -72 11 -32 6 -51 -31 -28 -56 50 -55 328 -192 440
-216 40 -8 40 -8 -25 -14 -55 -4 -65 -8 -68 -25 -2 -15 11 -28 50 -51 73 -43
182 -89 248 -104 71 -16 70 -15 60 -49 -8 -28 -6 -30 59 -61 118 -59 311 -85
431 -59 28 6 54 9 56 6 3 -3 -21 -11 -53 -18 -67 -14 -83 -24 -83 -50 0 -14
16 -23 66 -39 88 -27 202 -27 302 1 89 24 233 77 246 90 18 16 26 9 26 -21 0
-25 4 -30 25 -30 14 0 25 -5 25 -10 0 -6 -31 -42 -69 -79 -68 -67 -74 -81 -38
-94 17 -6 13 -14 -31 -65 -28 -31 -62 -68 -76 -81 -30 -28 -35 -75 -10 -85 9
-4 40 -3 68 0 49 7 50 6 35 -12 -9 -10 -26 -46 -37 -79 -17 -50 -152 -310
-236 -456 -74 -127 -126 -207 -157 -243 l-36 -40 -74 64 c-41 36 -85 75 -99
87 -41 38 -115 58 -161 44 -21 -6 -41 -16 -45 -22 -3 -6 -17 11 -31 38 -79
152 -145 248 -272 396 -73 86 -291 287 -311 287 -4 0 -15 -9 -25 -20 -17 -19
-16 -23 23 -112 57 -133 117 -320 105 -332 -3 -3 -41 8 -86 24 -83 31 -302 80
-355 80 -24 0 -31 -5 -36 -26 -6 -22 0 -32 36 -63 126 -106 251 -242 403 -436
43 -55 94 -120 115 -145 20 -25 58 -76 85 -115 69 -99 94 -125 125 -125 27 0
67 35 90 79 15 30 30 12 30 -38 0 -27 12 -47 61 -102 34 -38 65 -69 70 -69 5
0 29 -16 55 -35 25 -19 51 -35 59 -35 7 0 20 -11 29 -24 8 -14 32 -37 52 -52
30 -24 39 -26 55 -15 21 12 17 14 169 -89 68 -47 168 -110 174 -110 4 0 46
-23 93 -50 93 -56 263 -143 263 -136 0 4 26 -6 146 -60 17 -7 41 -17 52 -21
21 -8 21 -8 -10 -103 -17 -52 -41 -120 -54 -151 -13 -31 -24 -61 -24 -67 0 -5
-11 -34 -25 -64 -37 -80 -36 -82 41 -73 116 12 236 59 301 118 13 11 26 18 29
14 7 -6 -50 -184 -73 -231 -21 -40 -6 -52 50 -37 50 12 214 88 264 121 l33 22
-6 -94 c-3 -51 -7 -105 -9 -120 -3 -16 0 -28 6 -28 16 0 162 67 205 93 20 12
64 45 99 74 l63 52 5 -37 c4 -20 9 -74 13 -119 6 -72 9 -83 25 -83 28 0 129
56 187 103 51 42 112 112 112 128 0 20 17 6 50 -41 40 -56 96 -102 189 -154
89 -51 97 -46 105 67 7 105 19 160 28 135 15 -39 285 -208 332 -208 23 0 28
35 21 136 -4 52 -4 94 1 94 4 0 15 -6 23 -14 33 -27 179 -96 248 -117 48 -14
80 1 67 30 -18 45 -82 236 -80 239 2 1 17 -9 34 -23 42 -35 185 -100 250 -114
110 -23 128 -10 94 67 -30 71 -72 184 -77 209 -2 12 -8 30 -13 40 -6 10 -17
41 -25 70 l-15 51 51 25 c88 41 174 77 185 77 10 0 148 69 217 109 22 13 76
44 120 69 44 24 114 68 155 95 168 113 174 117 184 107 18 -18 36 -10 95 43
32 28 91 72 130 96 39 24 81 57 93 75 12 17 32 43 46 58 16 18 25 40 26 64 1
49 16 52 46 8 51 -75 100 -71 159 14 71 100 211 283 319 417 79 97 212 237
290 306 70 62 81 80 63 108 -16 25 -184 -5 -368 -64 -85 -27 -103 -31 -103
-18 0 29 80 265 115 340 34 72 35 77 19 94 -10 11 -21 19 -27 19 -18 0 -180
-145 -273 -245 -113 -121 -199 -234 -256 -338 -84 -152 -73 -139 -114 -122
-49 20 -70 19 -129 -9 -49 -23 -67 -37 -167 -132 l-49 -47 -41 39 c-22 22 -48
55 -59 74 -20 37 -34 59 -60 100 -9 14 -45 77 -79 140 -71 130 -113 207 -145
265 -12 22 -38 80 -57 129 l-36 88 48 -7 c48 -7 80 9 80 38 0 7 -36 51 -80 98
-43 48 -76 89 -73 93 3 3 15 6 25 6 33 0 19 28 -52 96 -38 37 -70 71 -70 75 0
4 12 9 28 11 22 2 27 8 27 31 -1 31 -1 31 33 13 50 -26 127 -54 222 -80 120
-33 230 -35 324 -6 36 12 66 23 66 25 0 2 -4 15 -9 28 -7 18 -17 24 -40 25
-17 0 -38 5 -48 10 -11 7 17 8 87 5 83 -4 125 -1 203 15 96 21 224 77 221 97
-1 6 -4 19 -8 30 -5 19 1 23 65 38 93 21 302 124 295 144 -4 8 -6 19 -6 24 0
5 -30 9 -67 10 l-68 1 65 18 c86 23 210 78 307 134 92 54 123 79 123 98 0 28
-20 34 -83 27 -34 -4 -63 -6 -65 -5 -1 2 30 20 70 40 139 70 317 222 302 260
-9 23 -31 20 -111 -13 -39 -16 -86 -32 -104 -36 -19 -3 -70 -15 -114 -25 -85
-19 -193 -35 -184 -26 4 4 71 22 153 41 61 14 250 108 339 168 106 72 267 245
267 287 0 39 -38 34 -110 -14 -77 -52 -140 -82 -140 -66 0 5 4 10 8 10 24 0
146 94 222 170 79 79 94 102 151 215 51 103 60 128 48 136 -27 17 -45 9 -75
-34 -40 -56 -123 -125 -206 -171 -79 -44 -91 -42 -18 3 27 17 83 63 125 102
151 143 263 392 194 430 -17 9 -25 7 -45 -12 -13 -12 -24 -20 -24 -17 0 3 22
43 50 89 27 46 50 89 50 94 0 6 7 24 16 40 9 17 29 68 44 115 l29 85 -21 17
c-20 18 -20 18 21 102 35 72 41 93 41 149 0 36 -5 69 -10 72 -9 6 -70 -51 -70
-66 0 -3 -9 -17 -21 -30 -11 -13 -24 -29 -27 -34 -4 -6 -47 -46 -97 -90 l-90
-79 66 70 c164 172 240 327 246 502 4 95 3 102 -15 102 -13 0 -30 -21 -57 -73
-41 -79 -89 -152 -106 -163 -8 -4 -8 0 0 14 6 12 15 23 20 27 16 9 81 132 81
152 0 11 4 23 10 29 8 8 27 72 61 204 5 19 9 68 9 108 l0 72 -29 0 c-23 0 -31
-6 -40 -30 -14 -41 -22 -38 -10 3 32 100 39 140 39 215 0 82 -24 217 -40 227
-15 9 -39 -7 -49 -33 -9 -22 -9 -20 -3 13 12 67 6 296 -9 350 -13 47 -16 50
-46 50 -27 0 -32 3 -28 20 14 70 15 104 5 178 -19 141 -55 237 -87 233 -20 -3
-27 -16 -41 -77 -13 -55 -52 -162 -58 -156 -2 2 5 29 16 60 28 79 26 194 -5
352 -36 186 -53 235 -82 235 -16 0 -24 -7 -29 -27 -40 -167 -73 -278 -80 -270
-3 2 2 33 11 68 8 35 18 132 21 214 8 172 -2 237 -48 333 -27 54 -34 62 -59
62 -23 0 -28 -5 -34 -32 -49 -262 -158 -610 -227 -733 -6 -11 -33 -62 -60
-113 -65 -124 -117 -207 -205 -323 -68 -90 -260 -293 -328 -348 -127 -102
-171 -134 -246 -183 -165 -108 -420 -242 -564 -298 -140 -54 -355 -159 -428
-207 -78 -52 -220 -188 -292 -278 -62 -78 -152 -165 -171 -165 -61 0 -134 72
-134 133 0 39 -27 105 -64 156 -24 33 -35 61 -39 99 -6 50 -5 52 18 53 14 1
30 3 35 4 6 1 15 3 20 4 6 0 10 12 10 26 0 17 -6 25 -17 25 -10 0 -40 15 -68
32 l-50 32 31 6 c51 11 94 42 94 67 0 24 -4 27 -54 38 l-29 6 32 20 c67 41 63
99 -8 99 l-36 1 27 14 c52 29 45 84 -11 83 -35 -1 -80 21 -98 48 -12 19 -12
20 16 16 41 -6 93 13 124 46 23 24 25 31 14 46 -11 16 -18 16 -55 7 -54 -15
-92 1 -150 60 -55 58 -106 190 -127 331 -5 32 -18 59 -41 87 l-35 40 23 12
c50 25 68 51 68 96 0 24 -4 43 -8 43 -5 0 -6 27 -4 61 3 37 0 65 -7 72 -8 8
-5 17 10 33 17 18 20 32 17 90 -3 65 -4 69 -28 72 -19 2 -30 -4 -43 -27 -45
-76 -181 -144 -317 -157 -89 -8 -130 -8 -345 -3 -128 4 -131 4 -190 -26 -33
-17 -73 -39 -88 -49 l-28 -19 -45 51 c-64 73 -88 69 -86 -15 0 -23 -3 -43 -7
-43 -3 0 -23 12 -44 26 -64 43 -103 9 -57 -49 l21 -26 -36 15 c-26 11 -41 12
-55 4 -11 -6 -20 -13 -20 -16 0 -13 31 -63 42 -68 7 -4 2 -4 -11 -2 -31 6 -51
-9 -51 -38 1 -24 14 -43 52 -72 l28 -22 -72 -31 c-132 -59 -242 -149 -273
-223 -49 -118 26 -332 80 -228 44 86 143 156 286 204 84 28 277 45 365 31 l49
-7 -40 -14 c-22 -8 -49 -19 -60 -24 -42 -22 -232 -50 -333 -50 -80 0 -104 -3
-108 -14 -3 -8 -11 -13 -18 -10 -7 3 -21 -4 -31 -16 -16 -17 -17 -25 -7 -59
17 -53 46 -87 89 -102 47 -15 223 -6 282 15 26 10 75 16 122 16 67 0 82 -3
105 -24 26 -21 27 -25 15 -53 -19 -47 -65 -87 -93 -80 -56 14 -82 -49 -44
-106 23 -33 24 -38 10 -44 -9 -3 -25 -1 -35 5 -45 29 -70 3 -49 -51 16 -39 68
-97 89 -97 13 -1 12 -4 -3 -15 -23 -18 -67 -20 -83 -4 -15 15 -53 -6 -53 -31
0 -31 20 -65 48 -83 l27 -16 -46 -1 c-51 0 -69 -13 -69 -50 0 -26 34 -66 75
-88 18 -10 17 -12 -20 -27 -82 -32 -90 -46 -51 -91 22 -26 23 -31 11 -54 -7
-14 -16 -33 -19 -42 -8 -25 -66 -58 -101 -58 -53 1 -74 20 -240 216 -62 74
-193 190 -267 237 -68 44 -215 121 -283 149 -27 11 -88 35 -135 53 -111 42
-350 162 -440 220 -19 12 -71 45 -115 73 -44 28 -100 66 -124 84 -81 61 -282
240 -289 257 -3 9 -16 24 -29 34 -28 22 -122 139 -184 227 -48 67 -129 198
-129 207 0 3 -21 42 -46 87 -99 175 -190 441 -250 731 -9 44 -18 86 -20 93 -2
6 -15 12 -29 12 -18 0 -31 -10 -45 -32z m3085 -1078 c-3 -5 -18 -10 -33 -9
l-27 1 25 8 c35 11 42 11 35 0z m-3479 -709 c58 -122 59 -125 44 -116 -15 10
-76 133 -99 203 -22 65 -27 94 -9 52 6 -14 35 -76 64 -139z m7805 27 c-27 -64
-91 -174 -91 -157 0 13 112 240 117 235 2 -2 -9 -37 -26 -78z m-7731 -178 c6
-11 8 -20 6 -20 -3 0 -10 9 -16 20 -6 11 -8 20 -6 20 3 0 10 -9 16 -20z m7621
-23 c-10 -9 -11 -8 -5 6 3 10 9 15 12 12 3 -3 0 -11 -7 -18z m-7560 -64 c13
-16 12 -17 -3 -4 -10 7 -18 15 -18 17 0 8 8 3 21 -13z m7738 -88 c-12 -19 -23
-35 -25 -35 -6 0 14 40 29 58 18 23 16 12 -4 -23z m-7955 -12 c9 -18 14 -33
12 -33 -6 0 -36 55 -36 66 0 11 5 3 24 -33z m-4 -373 c11 -22 19 -40 17 -40
-3 0 -16 18 -31 40 -14 22 -22 40 -16 40 5 0 19 -18 30 -40z m44 -66 c5 -14 4
-15 -9 -4 -17 14 -19 20 -6 20 5 0 12 -7 15 -16z m27 -41 c13 -16 12 -17 -3
-4 -10 7 -18 15 -18 17 0 8 8 3 21 -13z m120 -420 c13 -16 12 -17 -3 -4 -17
13 -22 21 -14 21 2 0 10 -8 17 -17z m380 -1341 c-7 -2 -18 1 -23 6 -8 8 -4 9
13 5 13 -4 18 -8 10 -11z m6824 8 c-3 -5 -12 -10 -18 -10 -7 0 -6 4 3 10 19
12 23 12 15 0z m-6352 -397 c-7 -2 -19 -2 -25 0 -7 3 -2 5 12 5 14 0 19 -2 13
-5z m5890 0 c-7 -2 -19 -2 -25 0 -7 3 -2 5 12 5 14 0 19 -2 13 -5z m-5830 -10
c-7 -2 -19 -2 -25 0 -7 3 -2 5 12 5 14 0 19 -2 13 -5z m5764 1 c-3 -3 -12 -4
-19 -1 -8 3 -5 6 6 6 11 1 17 -2 13 -5z m-3543 -1347 l38 -34 -50 -149 c-28
-82 -60 -183 -70 -224 -11 -41 -59 -192 -107 -335 -48 -143 -88 -269 -90 -280
-2 -11 -10 -40 -20 -65 -9 -25 -23 -65 -30 -90 -7 -25 -21 -65 -30 -90 -9 -25
-19 -53 -21 -64 -5 -28 -12 -31 -42 -19 -15 6 -73 30 -129 53 -98 40 -163 74
-358 183 l-85 49 6 63 c6 53 3 69 -14 97 -27 44 -19 61 71 162 40 44 120 138
178 207 57 69 122 148 144 174 22 27 53 65 68 86 18 25 50 48 90 67 34 16 83
39 108 51 25 12 74 49 108 81 34 33 68 60 75 60 8 0 31 15 52 34 43 38 44 38
108 -17z m1460 -22 c17 -8 50 -34 74 -59 40 -42 69 -59 215 -126 32 -15 65
-42 95 -79 26 -32 94 -116 152 -186 58 -71 151 -180 206 -242 106 -118 126
-153 100 -182 -16 -18 -23 -100 -11 -143 4 -16 3 -28 -2 -28 -5 0 -52 -25
-104 -57 -131 -78 -189 -109 -299 -155 -52 -22 -119 -51 -149 -63 l-54 -23
-54 156 c-29 87 -55 168 -57 182 -3 14 -43 142 -91 285 -48 143 -95 293 -106
333 -11 39 -42 140 -70 223 -28 83 -49 152 -47 154 2 2 25 21 53 43 l50 40 34
-30 c19 -17 48 -36 65 -43z m-3405 -942 c8 -17 9 -29 2 -36 -7 -7 -14 -1 -21
17 -19 51 -3 67 19 19z m5208 -8 c-11 -38 -21 -44 -31 -20 -3 9 3 24 14 35 27
27 30 25 17 -15z"/>
</g>
</svg>
