<svg xmlns="http://www.w3.org/2000/svg" width="32" height="32">
    <path style="stroke:none;fill-rule:nonzero;fill:#000;fill-opacity:1" d="M5.332 24H20c.734 0 1.332-.602 1.332-1.332 0-.734-.598-1.336-1.332-1.336H5.332A1.34 1.34 0 0 0 4 22.668C4 23.398 4.602 24 5.332 24Zm0-6.668H16c.734 0 1.332-.598 1.332-1.332 0-.734-.598-1.332-1.332-1.332H5.332C4.602 14.668 4 15.266 4 16c0 .734.602 1.332 1.332 1.332ZM4 9.332a1.34 1.34 0 0 0 1.332 1.336H20c.734 0 1.332-.602 1.332-1.336C21.332 8.602 20.734 8 20 8H5.332C4.602 8 4 8.602 4 9.332ZM27.066 19.84 23.226 16l3.84-3.84c.52-.52.52-1.36 0-1.879-.52-.52-1.359-.52-1.878 0l-4.79 4.785c-.52.52-.52 1.36 0 1.88l4.79 4.788c.519.52 1.359.52 1.878 0 .508-.52.52-1.375 0-1.894Zm0 0"/>
</svg>
